<mxfile host="app.diagrams.net" modified="2021-04-24T11:20:40.099Z" agent="5.0 (Windows NT 10.0; Win64; x64) AppleWebKit/537.36 (KHTML, like Gecko) Chrome/89.0.4389.114 Safari/537.36" etag="fHYtoSo7JoVGbvxsvW-Q" version="14.6.1" type="github">
  <diagram id="pW0wESfbeyjECwN5Dejr" name="Page-1">
    <mxGraphModel dx="1673" dy="896" grid="1" gridSize="10" guides="1" tooltips="1" connect="1" arrows="1" fold="1" page="1" pageScale="1" pageWidth="2339" pageHeight="3300" math="0" shadow="0">
      <root>
        <mxCell id="0" />
        <mxCell id="1" parent="0" />
        <mxCell id="c25PwSP02AAytldhQlsb-1" value="&lt;font style=&quot;font-size: 30px&quot;&gt;开始&lt;/font&gt;" style="rounded=1;whiteSpace=wrap;html=1;" vertex="1" parent="1">
          <mxGeometry x="680" y="550" width="230" height="110" as="geometry" />
        </mxCell>
        <mxCell id="c25PwSP02AAytldhQlsb-2" value="&lt;span style=&quot;font-size: 30px&quot;&gt;输入待检测文档&lt;/span&gt;" style="rounded=0;whiteSpace=wrap;html=1;" vertex="1" parent="1">
          <mxGeometry x="675" y="690" width="240" height="90" as="geometry" />
        </mxCell>
        <mxCell id="c25PwSP02AAytldhQlsb-3" value="&lt;font style=&quot;font-size: 30px&quot;&gt;结束&lt;/font&gt;" style="rounded=1;whiteSpace=wrap;html=1;" vertex="1" parent="1">
          <mxGeometry x="680" y="1160" width="230" height="110" as="geometry" />
        </mxCell>
        <mxCell id="c25PwSP02AAytldhQlsb-4" value="" style="endArrow=classic;html=1;exitX=0.5;exitY=1;exitDx=0;exitDy=0;" edge="1" parent="1" source="c25PwSP02AAytldhQlsb-1" target="c25PwSP02AAytldhQlsb-2">
          <mxGeometry width="50" height="50" relative="1" as="geometry">
            <mxPoint x="490" y="700" as="sourcePoint" />
            <mxPoint x="540" y="650" as="targetPoint" />
          </mxGeometry>
        </mxCell>
        <mxCell id="c25PwSP02AAytldhQlsb-5" value="&lt;span style=&quot;font-size: 30px&quot;&gt;服务器调用算法与模型，得到分析结果&lt;/span&gt;" style="rounded=0;whiteSpace=wrap;html=1;" vertex="1" parent="1">
          <mxGeometry x="642.5" y="810" width="305" height="170" as="geometry" />
        </mxCell>
        <mxCell id="c25PwSP02AAytldhQlsb-6" value="&lt;span style=&quot;font-size: 30px&quot;&gt;分析结果&lt;br&gt;返回前台&lt;/span&gt;" style="rounded=0;whiteSpace=wrap;html=1;" vertex="1" parent="1">
          <mxGeometry x="675" y="1020" width="240" height="90" as="geometry" />
        </mxCell>
        <mxCell id="c25PwSP02AAytldhQlsb-7" value="" style="endArrow=classic;html=1;entryX=0.5;entryY=0;entryDx=0;entryDy=0;exitX=0.5;exitY=1;exitDx=0;exitDy=0;" edge="1" parent="1" source="c25PwSP02AAytldhQlsb-2" target="c25PwSP02AAytldhQlsb-5">
          <mxGeometry width="50" height="50" relative="1" as="geometry">
            <mxPoint x="480" y="880" as="sourcePoint" />
            <mxPoint x="530" y="830" as="targetPoint" />
          </mxGeometry>
        </mxCell>
        <mxCell id="c25PwSP02AAytldhQlsb-8" value="" style="endArrow=classic;html=1;entryX=0.5;entryY=0;entryDx=0;entryDy=0;" edge="1" parent="1" source="c25PwSP02AAytldhQlsb-5" target="c25PwSP02AAytldhQlsb-6">
          <mxGeometry width="50" height="50" relative="1" as="geometry">
            <mxPoint x="500" y="1090" as="sourcePoint" />
            <mxPoint x="550" y="1040" as="targetPoint" />
          </mxGeometry>
        </mxCell>
        <mxCell id="c25PwSP02AAytldhQlsb-9" value="" style="endArrow=classic;html=1;exitX=0.5;exitY=1;exitDx=0;exitDy=0;entryX=0.5;entryY=0;entryDx=0;entryDy=0;" edge="1" parent="1" source="c25PwSP02AAytldhQlsb-6" target="c25PwSP02AAytldhQlsb-3">
          <mxGeometry width="50" height="50" relative="1" as="geometry">
            <mxPoint x="490" y="1120" as="sourcePoint" />
            <mxPoint x="540" y="1070" as="targetPoint" />
          </mxGeometry>
        </mxCell>
      </root>
    </mxGraphModel>
  </diagram>
</mxfile>
